<svg width="48" height="48" viewBox="0 0 48 48" fill="none" xmlns="http://www.w3.org/2000/svg">
<path d="M24.047 11.374L18.424 22.301L24.047 37L41.047 28.805V11.374H24.047Z" fill="#FF8F52"/>
<path d="M7.047 11.374V28.805L24.047 37V11.374H7.047Z" fill="#FFAC80"/>
<path d="M7.047 11.374L24.047 18.789L41.047 11.374L24.047 5L7.047 11.374Z" fill="#DD4F00"/>
<path d="M9.937 30.2L7.047 28.8C7.157 29.24 7.377 29.655 7.637 29.975L13.447 36L9.937 30.2ZM38.168 30.179L34.647 36L40.427 29.985C40.757 29.655 40.957 29.232 41.047 28.792L38.168 30.179Z" fill="#FF9800"/>
<path d="M38.247 28.5C37.947 29.2 37.347 28.9 36.647 28.6C35.947 28.3 35.547 27.9 35.847 27.3C36.147 26.6 37.047 26.4 37.647 26.7C38.347 27 38.647 27.8 38.247 28.5ZM9.84705 28.5C10.147 29.2 10.747 28.9 11.447 28.6C12.147 28.3 12.547 27.9 12.247 27.3C11.947 26.6 11.047 26.4 10.447 26.7C9.84705 27 9.44705 27.8 9.84705 28.5Z" fill="#FFCC80"/>
<path d="M17.5 16V34L12.5 31V13.5L28.5 6.5L33.5 8.5L17.5 16Z" fill="#FFCEB3"/>
<path d="M17.247 35.1L16.217 33.22L12.847 27.1C12.247 26 10.847 25.7 9.847 26.5C9.047 27.1 8.847 28.2 9.347 29.1L9.717 29.79L9.937 30.2L10.647 31.5L9.879 30.171L8.157 29.33L7.047 28.8V16.28C6.837 16.15 6.597 16.05 6.347 16C5.147 15.8 4.047 16.8 4.047 18V27.5C4.047 28.5 4.347 29.5 4.847 30.3L10.147 40V42H18.147V38.5C18.147 37.3 17.847 36.1 17.247 35.1ZM41.747 16C41.497 16.05 41.257 16.15 41.047 16.28V28.8L39.967 29.32L38.217 30.16L37.447 31.5L38.157 30.2L38.377 29.79L38.747 29.1C39.247 28.2 39.047 27.1 38.247 26.5C37.247 25.7 35.847 26 35.247 27.1L31.877 33.22L30.847 35.1C30.247 36.1 29.947 37.3 29.947 38.5V42H37.947V40L43.247 30.3C43.747 29.4 43.947 28.4 43.947 27.4V18C44.047 16.8 42.947 15.8 41.747 16Z" fill="#9C5A29"/>
</svg>
