<svg width="48" height="48" viewBox="0 0 48 48" fill="none" xmlns="http://www.w3.org/2000/svg">
<path d="M40.9032 35.0161H28.4839V15.4999H37.8871C38.6855 15.4999 39.3065 16.0322 39.5726 16.7419L42.6774 26.1451V33.2419C42.6774 34.2177 41.879 35.0161 40.9032 35.0161Z" fill="#FF8F52"/>
<path d="M28.4838 35.0161H7.19351C6.2177 35.0161 5.41931 34.2178 5.41931 33.242V11.0645C5.41931 10.0887 6.2177 9.29034 7.19351 9.29034H26.7096C27.6854 9.29034 28.4838 10.0887 28.4838 11.0645V35.0161Z" fill="#FF772D"/>
<path d="M35.5807 30.5806C34.4043 30.5806 33.2761 31.0479 32.4443 31.8798C31.6125 32.7116 31.1452 33.8397 31.1452 35.0161C31.1452 36.1925 31.6125 37.3207 32.4443 38.1525C33.2761 38.9843 34.4043 39.4516 35.5807 39.4516C36.757 39.4516 37.8852 38.9843 38.717 38.1525C39.5488 37.3207 40.0162 36.1925 40.0162 35.0161C40.0162 33.8397 39.5488 32.7116 38.717 31.8798C37.8852 31.0479 36.757 30.5806 35.5807 30.5806ZM14.2903 30.5806C13.114 30.5806 11.9858 31.0479 11.154 31.8798C10.3222 32.7116 9.85486 33.8397 9.85486 35.0161C9.85486 36.1925 10.3222 37.3207 11.154 38.1525C11.9858 38.9843 13.114 39.4516 14.2903 39.4516C15.4667 39.4516 16.5949 38.9843 17.4267 38.1525C18.2585 37.3207 18.7258 36.1925 18.7258 35.0161C18.7258 33.8397 18.2585 32.7116 17.4267 31.8798C16.5949 31.0479 15.4667 30.5806 14.2903 30.5806Z" fill="#37474F"/>
<path d="M35.5808 33.2419C35.1102 33.2419 34.6589 33.4288 34.3262 33.7615C33.9935 34.0943 33.8066 34.5455 33.8066 35.0161C33.8066 35.4866 33.9935 35.9379 34.3262 36.2706C34.6589 36.6033 35.1102 36.7903 35.5808 36.7903C36.0513 36.7903 36.5026 36.6033 36.8353 36.2706C37.168 35.9379 37.3549 35.4866 37.3549 35.0161C37.3549 34.5455 37.168 34.0943 36.8353 33.7615C36.5026 33.4288 36.0513 33.2419 35.5808 33.2419ZM14.2904 33.2419C13.8199 33.2419 13.3686 33.4288 13.0359 33.7615C12.7032 34.0943 12.5162 34.5455 12.5162 35.0161C12.5162 35.4866 12.7032 35.9379 13.0359 36.2706C13.3686 36.6033 13.8199 36.7903 14.2904 36.7903C14.761 36.7903 15.2122 36.6033 15.545 36.2706C15.8777 35.9379 16.0646 35.4866 16.0646 35.0161C16.0646 34.5455 15.8777 34.0943 15.545 33.7615C15.2122 33.4288 14.761 33.2419 14.2904 33.2419Z" fill="#78909C"/>
<path d="M39.129 25.258H32.9193C32.3871 25.258 32.0322 24.9032 32.0322 24.3709V18.1613C32.0322 17.629 32.3871 17.2742 32.9193 17.2742H37.6209C37.9758 17.2742 38.3306 17.5403 38.4193 17.8951L39.9274 22.508C39.9274 22.5967 40.0161 22.6855 40.0161 22.7742V24.3709C40.0161 24.9032 39.6613 25.258 39.129 25.258Z" fill="#DD4F00"/>
</svg>
