<svg width="946" height="155" viewBox="0 0 946 155" fill="none" xmlns="http://www.w3.org/2000/svg">
<path d="M8.09091 124V30.9091H45.3636C52.2121 30.9091 57.9242 31.9242 62.5 33.9545C67.0758 35.9848 70.5152 38.803 72.8182 42.4091C75.1212 45.9848 76.2727 50.1061 76.2727 54.7727C76.2727 58.4091 75.5455 61.6061 74.0909 64.3636C72.6364 67.0909 70.6364 69.3333 68.0909 71.0909C65.5758 72.8182 62.697 74.0455 59.4545 74.7727V75.6818C63 75.8333 66.3182 76.8333 69.4091 78.6818C72.5303 80.5303 75.0606 83.1212 77 86.4545C78.9394 89.7576 79.9091 93.697 79.9091 98.2727C79.9091 103.212 78.6818 107.621 76.2273 111.5C73.803 115.348 70.2121 118.394 65.4545 120.636C60.697 122.879 54.8333 124 47.8636 124H8.09091ZM27.7727 107.909H43.8182C49.303 107.909 53.303 106.864 55.8182 104.773C58.3333 102.652 59.5909 99.8333 59.5909 96.3182C59.5909 93.7424 58.9697 91.4697 57.7273 89.5C56.4849 87.5303 54.7121 85.9848 52.4091 84.8636C50.1364 83.7424 47.4242 83.1818 44.2727 83.1818H27.7727V107.909ZM27.7727 69.8636H42.3636C45.0606 69.8636 47.4545 69.3939 49.5455 68.4545C51.6667 67.4848 53.3333 66.1212 54.5455 64.3636C55.7879 62.6061 56.4091 60.5 56.4091 58.0455C56.4091 54.6818 55.2121 51.9697 52.8182 49.9091C50.4545 47.8485 47.0909 46.8182 42.7273 46.8182H27.7727V69.8636ZM92.7159 124V30.9091H129.443C136.473 30.9091 142.473 32.1667 147.443 34.6818C152.443 37.1667 156.246 40.697 158.852 45.2727C161.489 49.8182 162.807 55.1667 162.807 61.3182C162.807 67.5 161.473 72.8182 158.807 77.2727C156.14 81.697 152.277 85.0909 147.216 87.4545C142.186 89.8182 136.095 91 128.943 91H104.352V75.1818H125.761C129.519 75.1818 132.64 74.6667 135.125 73.6364C137.61 72.6061 139.458 71.0606 140.67 69C141.913 66.9394 142.534 64.3788 142.534 61.3182C142.534 58.2273 141.913 55.6212 140.67 53.5C139.458 51.3788 137.595 49.7727 135.08 48.6818C132.595 47.5606 129.458 47 125.67 47H112.398V124H92.7159ZM142.989 81.6364L166.125 124H144.398L121.761 81.6364H142.989Z" fill="#FE5B01"/>
<path d="M177.091 124V30.9091H196.773V69.3182H236.727V30.9091H256.364V124H236.727V85.5455H196.773V124H177.091ZM330.091 30.9091H349.773V91.3636C349.773 98.1515 348.152 104.091 344.909 109.182C341.697 114.273 337.197 118.242 331.409 121.091C325.621 123.909 318.879 125.318 311.182 125.318C303.455 125.318 296.697 123.909 290.909 121.091C285.121 118.242 280.621 114.273 277.409 109.182C274.197 104.091 272.591 98.1515 272.591 91.3636V30.9091H292.273V89.6818C292.273 93.2273 293.045 96.3788 294.591 99.1364C296.167 101.894 298.379 104.061 301.227 105.636C304.076 107.212 307.394 108 311.182 108C315 108 318.318 107.212 321.136 105.636C323.985 104.061 326.182 101.894 327.727 99.1364C329.303 96.3788 330.091 93.2273 330.091 89.6818V30.9091ZM365.966 124V30.9091H403.239C410.087 30.9091 415.799 31.9242 420.375 33.9545C424.951 35.9848 428.39 38.803 430.693 42.4091C432.996 45.9848 434.148 50.1061 434.148 54.7727C434.148 58.4091 433.42 61.6061 431.966 64.3636C430.511 67.0909 428.511 69.3333 425.966 71.0909C423.451 72.8182 420.572 74.0455 417.33 74.7727V75.6818C420.875 75.8333 424.193 76.8333 427.284 78.6818C430.405 80.5303 432.936 83.1212 434.875 86.4545C436.814 89.7576 437.784 93.697 437.784 98.2727C437.784 103.212 436.557 107.621 434.102 111.5C431.678 115.348 428.087 118.394 423.33 120.636C418.572 122.879 412.708 124 405.739 124H365.966ZM385.648 107.909H401.693C407.178 107.909 411.178 106.864 413.693 104.773C416.208 102.652 417.466 99.8333 417.466 96.3182C417.466 93.7424 416.845 91.4697 415.602 89.5C414.36 87.5303 412.587 85.9848 410.284 84.8636C408.011 83.7424 405.299 83.1818 402.148 83.1818H385.648V107.909ZM385.648 69.8636H400.239C402.936 69.8636 405.33 69.3939 407.42 68.4545C409.542 67.4848 411.208 66.1212 412.42 64.3636C413.663 62.6061 414.284 60.5 414.284 58.0455C414.284 54.6818 413.087 51.9697 410.693 49.9091C408.33 47.8485 404.966 46.8182 400.602 46.8182H385.648V69.8636Z" fill="#FE5B01"/>
<path d="M465.091 124V30.9091H527.818V47.1364H484.773V69.3182H524.591V85.5455H484.773V107.773H528V124H465.091ZM621.33 30.9091V124H604.33L563.83 65.4091H563.148V124H543.466V30.9091H560.739L600.92 89.4545H601.739V30.9091H621.33ZM654.409 30.9091L676.909 101.636H677.773L700.318 30.9091H722.136L690.045 124H664.682L632.545 30.9091H654.409ZM753.023 30.9091V124H733.341V30.9091H753.023ZM854.761 77.4545C854.761 87.6061 852.837 96.2424 848.989 103.364C845.17 110.485 839.958 115.924 833.352 119.682C826.777 123.409 819.383 125.273 811.17 125.273C802.898 125.273 795.473 123.394 788.898 119.636C782.322 115.879 777.125 110.439 773.307 103.318C769.489 96.197 767.58 87.5758 767.58 77.4545C767.58 67.303 769.489 58.6667 773.307 51.5455C777.125 44.4242 782.322 39 788.898 35.2727C795.473 31.5151 802.898 29.6364 811.17 29.6364C819.383 29.6364 826.777 31.5151 833.352 35.2727C839.958 39 845.17 44.4242 848.989 51.5455C852.837 58.6667 854.761 67.303 854.761 77.4545ZM834.807 77.4545C834.807 70.8788 833.822 65.3333 831.852 60.8182C829.913 56.303 827.17 52.8788 823.625 50.5455C820.08 48.2121 815.928 47.0455 811.17 47.0455C806.413 47.0455 802.261 48.2121 798.716 50.5455C795.17 52.8788 792.413 56.303 790.443 60.8182C788.504 65.3333 787.534 70.8788 787.534 77.4545C787.534 84.0303 788.504 89.5758 790.443 94.0909C792.413 98.6061 795.17 102.03 798.716 104.364C802.261 106.697 806.413 107.864 811.17 107.864C815.928 107.864 820.08 106.697 823.625 104.364C827.17 102.03 829.913 98.6061 831.852 94.0909C833.822 89.5758 834.807 84.0303 834.807 77.4545ZM919.841 57.6818C919.477 54.0151 917.917 51.1667 915.159 49.1364C912.402 47.1061 908.659 46.0909 903.932 46.0909C900.72 46.0909 898.008 46.5455 895.795 47.4545C893.583 48.3333 891.886 49.5606 890.705 51.1364C889.553 52.7121 888.977 54.5 888.977 56.5C888.917 58.1667 889.265 59.6212 890.023 60.8636C890.811 62.1061 891.886 63.1818 893.25 64.0909C894.614 64.9697 896.189 65.7424 897.977 66.4091C899.765 67.0455 901.674 67.5909 903.705 68.0455L912.068 70.0455C916.129 70.9545 919.856 72.1667 923.25 73.6818C926.644 75.197 929.583 77.0606 932.068 79.2727C934.553 81.4848 936.477 84.0909 937.841 87.0909C939.235 90.0909 939.947 93.5303 939.977 97.4091C939.947 103.106 938.492 108.045 935.614 112.227C932.765 116.379 928.644 119.606 923.25 121.909C917.886 124.182 911.417 125.318 903.841 125.318C896.326 125.318 889.78 124.167 884.205 121.864C878.659 119.561 874.326 116.152 871.205 111.636C868.114 107.091 866.492 101.47 866.341 94.7727H885.386C885.598 97.8939 886.492 100.5 888.068 102.591C889.674 104.652 891.811 106.212 894.477 107.273C897.174 108.303 900.22 108.818 903.614 108.818C906.947 108.818 909.841 108.333 912.295 107.364C914.78 106.394 916.705 105.045 918.068 103.318C919.432 101.591 920.114 99.6061 920.114 97.3636C920.114 95.2727 919.492 93.5152 918.25 92.0909C917.038 90.6667 915.25 89.4545 912.886 88.4545C910.553 87.4545 907.689 86.5455 904.295 85.7273L894.159 83.1818C886.311 81.2727 880.114 78.2879 875.568 74.2273C871.023 70.1667 868.765 64.697 868.795 57.8182C868.765 52.1818 870.265 47.2576 873.295 43.0455C876.356 38.8333 880.553 35.5455 885.886 33.1818C891.22 30.8182 897.28 29.6364 904.068 29.6364C910.977 29.6364 917.008 30.8182 922.159 33.1818C927.341 35.5455 931.371 38.8333 934.25 43.0455C937.129 47.2576 938.614 52.1364 938.705 57.6818H919.841Z" fill="black"/>
</svg>
