<svg width="48" height="48" viewBox="0 0 48 48" fill="none" xmlns="http://www.w3.org/2000/svg">
<path d="M22 14H28V19H22V14Z" fill="#FFB74D"/>
<path d="M39 14L47 6V32.875L39 42V14Z" fill="#FF8F52"/>
<path d="M11 14L21 6H47L39 14H11Z" fill="#DD4F00"/>
<path d="M28.5 22H21.5C20.672 22 20 21.328 20 20.5C20 19.672 20.672 19 21.5 19H28.5C29.328 19 30 19.672 30 20.5C30 21.328 29.328 22 28.5 22Z" fill="#AB5600"/>
<path d="M28 14H22L31 6H37L28 14Z" fill="#FFCEB3"/>
<path d="M11 14H39V42H11V14Z" fill="#FFAC80"/>
<path d="M1.70005 40L9.30005 40L9.30005 42L1.00005 42L1.70005 40ZM6.20005 28L9.30005 28L9.30005 30L5.50005 30L6.20005 28ZM4.00005 34L9.30005 34L9.30005 36L3.20005 36L4.00005 34Z" fill="#FF7427"/>
<path d="M22 42V14H28V42H22Z" fill="#FFCEB3"/>
</svg>
