<svg width="48" height="48" viewBox="0 0 48 48" fill="none" xmlns="http://www.w3.org/2000/svg">
<path d="M42.5217 17.0435V44H35.5652V19.6522H12.9565V44H6V17.0435L24.2609 4L42.5217 17.0435Z" fill="#4B188B"/>
<path d="M42.5217 17.0435V42.2609H35.5652V19.6522H12.9565C12.9565 43.2957 12.8696 42.2609 12.9565 42.2609C11.5728 42.2609 10.2457 41.7112 9.26727 40.7327C8.28882 39.7543 7.73914 38.4272 7.73914 37.0435V15.8L24.2609 4L42.5217 17.0435Z" fill="#5E3C9E"/>
<path d="M35.5652 26.6087H12.9565V44H35.5652V26.6087Z" fill="#C6C3D8"/>
<path d="M33.8261 31.8261V44H12.9565V28.3478H30.3478C31.2703 28.3478 32.155 28.7143 32.8074 29.3666C33.4597 30.0189 33.8261 30.9036 33.8261 31.8261Z" fill="#DAD7E5"/>
<path d="M35.5652 19.6522H12.9565V23.1304H35.5652V19.6522Z" fill="#7C7D7D"/>
<path d="M35.5652 19.6522V22.2609H16.4347C15.7429 22.2609 15.0793 21.986 14.5901 21.4968C14.1009 21.0076 13.826 20.344 13.826 19.6522H35.5652Z" fill="#919191"/>
<path d="M35.5652 23.1304H12.9565V26.6087H35.5652V23.1304Z" fill="#7C7D7D"/>
<path d="M35.5652 23.1304V25.7391H16.4347C15.7429 25.7391 15.0793 25.4643 14.5901 24.9751C14.1009 24.4858 13.826 23.8223 13.826 23.1304H35.5652Z" fill="#919191"/>
<path d="M26.8695 13.5652V16.1739H21.6521C21.6521 13.6435 21.5303 13.0261 22.0347 12.2087C22.331 11.7237 22.7777 11.3487 23.3067 11.1408C23.8358 10.9329 24.4182 10.9035 24.9655 11.0571C25.5128 11.2106 25.9949 11.5387 26.3386 11.9915C26.6823 12.4442 26.8687 12.9968 26.8695 13.5652Z" fill="#C6C3D8"/>
<path d="M25.9999 14.4348V16.1739H21.6521C21.6521 13.6435 21.5303 13.0261 22.0347 12.2087C22.4301 11.968 22.8824 11.8368 23.3452 11.8287C23.808 11.8205 24.2646 11.9356 24.6682 12.1622C25.0719 12.3888 25.4079 12.7187 25.6419 13.1181C25.876 13.5174 25.9995 13.9719 25.9999 14.4348Z" fill="#EDEBF2"/>
<path d="M24.2608 37.0435H17.3043V44H24.2608V37.0435Z" fill="#DD4F00"/>
<path d="M24.2609 37.0435V43.1304H21.6522C20.7297 43.1304 19.845 42.764 19.1927 42.1117C18.5404 41.4594 18.174 40.5746 18.174 39.6522V37.0435H24.2609Z" fill="#FF7427"/>
<path d="M31.2174 37.0435H24.2609V44H31.2174V37.0435Z" fill="#DD4F00"/>
<path d="M31.2173 37.0435V43.1304H28.6086C27.6861 43.1304 26.8014 42.764 26.1491 42.1117C25.4968 41.4594 25.1304 40.5746 25.1304 39.6522V37.0435H31.2173Z" fill="#FF7427"/>
<path d="M27.7391 30.087H20.7826V37.0435H27.7391V30.087Z" fill="#DD4F00"/>
<path d="M27.7392 30.087V36.1739H25.1305C24.208 36.1739 23.3233 35.8075 22.671 35.1552C22.0187 34.5029 21.6522 33.6182 21.6522 32.6957V30.087H27.7392Z" fill="#FF7427"/>
<path d="M21.6522 37.0435V38.7826C21.6522 39.0132 21.5606 39.2344 21.3975 39.3975C21.2345 39.5605 21.0133 39.6522 20.7827 39.6522C20.552 39.6522 20.3309 39.5605 20.1678 39.3975C20.0047 39.2344 19.9131 39.0132 19.9131 38.7826V37.0435H21.6522Z" fill="#FFDEC7"/>
<path d="M28.6086 37.0435V38.7826C28.6086 39.0132 28.517 39.2344 28.3539 39.3975C28.1909 39.5605 27.9697 39.6522 27.7391 39.6522C27.5084 39.6522 27.2873 39.5605 27.1242 39.3975C26.9611 39.2344 26.8695 39.0132 26.8695 38.7826V37.0435H28.6086Z" fill="#FFDEC7"/>
<path d="M25.1305 30.087V31.8261C25.1305 32.0567 25.0389 32.2779 24.8758 32.441C24.7127 32.6041 24.4915 32.6957 24.2609 32.6957C24.0303 32.6957 23.8091 32.6041 23.646 32.441C23.483 32.2779 23.3914 32.0567 23.3914 31.8261V30.087H25.1305Z" fill="#FFDEC7"/>
</svg>
