<?xml version="1.0" ?><svg style="enable-background:new 0 0 48 48;" version="1.1" viewBox="0 0 48 48" xml:space="preserve" xmlns="http://www.w3.org/2000/svg" xmlns:xlink="http://www.w3.org/1999/xlink"><g id="Icons"><g><path d="M16.3872,34.6633l-6.71-10.09c-0.86-1.42-0.41-3.26,1.01-4.13l14.15-8.6    c1.42-0.86,3.26-0.41,4.13,1l3.68,6.06l1.18,2.11" style="fill:#F43735;"/><path d="M35.7572,36.5934h-16.569c-1.6568,0-3-1.3432-3-3V24.01c0-1.6568,1.3432-3,3-3h16.569    c1.6569,0,3,1.3432,3,3v9.5834C38.7572,35.2502,37.4141,36.5934,35.7572,36.5934z" style="fill:#F9F9F9;"/><rect height="3.1331" style="fill:#383838;" width="22.5712" x="16.1879" y="24.4404"/><g><line style="fill:none;stroke:#303030;stroke-width:0.5;stroke-linecap:round;stroke-linejoin:round;stroke-miterlimit:10;" x1="36.6873" x2="34.0623" y1="31.6485" y2="31.6485"/><line style="fill:none;stroke:#303030;stroke-width:0.5;stroke-linecap:round;stroke-linejoin:round;stroke-miterlimit:10;" x1="36.6873" x2="34.0623" y1="32.7735" y2="32.7735"/><line style="fill:none;stroke:#303030;stroke-width:0.5;stroke-linecap:round;stroke-linejoin:round;stroke-miterlimit:10;" x1="36.6873" x2="34.0623" y1="33.9402" y2="33.9402"/></g><path d="M25.6898,29.138c-1.0925,0-2.0289,0.659-2.44,1.6c-0.4111-0.941-1.3475-1.6-2.44-1.6    c-1.4715,0-2.6642,1.1928-2.6642,2.6641c0,1.4714,1.1927,2.6642,2.6642,2.6642c1.0925,0,2.0289-0.6591,2.44-1.6001    c0.4111,0.941,1.3475,1.6001,2.44,1.6001c1.4714,0,2.6641-1.1928,2.6641-2.6642C28.3539,30.3308,27.1612,29.138,25.6898,29.138z" style="fill:#FFC601;"/><path d="    M35.7572,36.5934h-16.569c-1.6568,0-3-1.3432-3-3V24.01c0-1.6568,1.3432-3,3-3h16.569c1.6569,0,3,1.3432,3,3v9.5834    C38.7572,35.2502,37.4141,36.5934,35.7572,36.5934z" style="fill:none;stroke:#303030;stroke-width:0.5;stroke-linecap:round;stroke-linejoin:round;stroke-miterlimit:10;"/><line style="fill:none;stroke:#303030;stroke-width:0.5;stroke-linecap:round;stroke-linejoin:round;stroke-miterlimit:10;" x1="38.7591" x2="16.1879" y1="24.4404" y2="24.4404"/><line style="fill:none;stroke:#303030;stroke-width:0.5;stroke-linecap:round;stroke-linejoin:round;stroke-miterlimit:10;" x1="38.7591" x2="16.1879" y1="27.5735" y2="27.5735"/><line style="fill:none;stroke:#303030;stroke-width:0.5;stroke-linecap:round;stroke-linejoin:round;stroke-miterlimit:10;" x1="17.1372" x2="17.1272" y1="35.7833" y2="35.7733"/><path d="    M16.3872,34.6633l-6.71-10.09c-0.86-1.42-0.41-3.26,1.01-4.13l14.15-8.6c1.42-0.86,3.26-0.41,4.13,1l3.68,6.06l1.18,2.11" style="fill:none;stroke:#303030;stroke-width:0.5;stroke-linecap:round;stroke-linejoin:round;stroke-miterlimit:10;"/><g><path d="     M11.5128,25.096c0,0-1.9506-2.1279-0.14779-3.5182l5.77659-3.5273" style="fill:none;stroke:#303030;stroke-width:0.5;stroke-linecap:round;stroke-linejoin:round;stroke-miterlimit:10;"/><line style="fill:none;stroke:#303030;stroke-width:0.5;stroke-linecap:round;stroke-linejoin:round;stroke-miterlimit:10;" x1="18.4377" x2="19.0404" y1="17.309" y2="16.8798"/><line style="fill:none;stroke:#303030;stroke-width:0.5;stroke-linecap:round;stroke-linejoin:round;stroke-miterlimit:10;" x1="32.2411" x2="30.6115" y1="21.01" y2="18.3804"/></g><circle cx="20.79519" cy="31.80215" r="2.64959" style="fill:#F43735;"/></g></g></svg>